<svg xmlns="http://www.w3.org/2000/svg" viewBox="0 0 1440 320">
    <path fill="#dcd6f3" fill-opacity="1"
        d="M0,192L34.3,208C68.6,224,137,256,206,229.3C274.3,203,343,117,411,117.3C480,117,549,203,617,229.3C685.7,256,754,224,823,197.3C891.4,171,960,149,1029,165.3C1097.1,181,1166,235,1234,234.7C1302.9,235,1371,181,1406,154.7L1440,128L1440,0L1405.7,0C1371.4,0,1303,0,1234,0C1165.7,0,1097,0,1029,0C960,0,891,0,823,0C754.3,0,686,0,617,0C548.6,0,480,0,411,0C342.9,0,274,0,206,0C137.1,0,69,0,34,0L0,0Z">
    </path>
</svg>