<svg width="1001" height="1001" viewBox="0 0 1001 1001" fill="none" xmlns="http://www.w3.org/2000/svg">
<circle cx="500.5" cy="500.5" r="483.5" fill="url(#paint0_linear_429_8137)"/>
<path d="M500.824 816H229.503C203.601 816 186.671 799.794 186.237 774.036C185.948 755.658 185.803 737.426 186.527 719.05C187.395 697.344 197.958 680.704 216.769 670.429C278.557 636.714 340.635 603.721 402.426 570.15C406.912 567.69 409.661 570.005 412.989 571.741C465.806 599.38 519.635 601.696 574.62 578.687C576.212 578.108 577.948 577.674 579.251 576.517C590.682 566.822 600.956 570.729 612.822 577.24C668.244 607.772 724.098 637.727 779.957 667.535C804.123 680.414 815.987 699.804 815.553 727.152C815.264 742.635 815.553 757.974 815.553 773.457C815.409 799.069 798.333 816 772.865 816H500.83L500.824 816Z" fill="#0D0E15" fill-opacity="0.73"/>
<path d="M496.339 557.129C445.404 555.392 403.15 530.214 372.039 485.5C321.104 412.136 327.182 307.953 385.497 241.102C448.877 168.606 553.928 169.04 616.731 241.97C683.44 319.531 679.243 441.955 607.036 512.273C577.517 541.069 542.209 556.552 496.338 557.131L496.339 557.129Z" fill="#0D0E15" fill-opacity="0.73"/>
<defs>
<linearGradient id="paint0_linear_429_8137" x1="232.602" y1="327.818" x2="993.684" y2="330.456" gradientUnits="userSpaceOnUse">
<stop stop-color="#564ECE"/>
<stop offset="0.9999" stop-color="#3A32AD"/>
<stop offset="1" stop-color="#3D34C9"/>
</linearGradient>
</defs>
</svg>
